<mxfile host="65bd71144e">
    <diagram id="u60STcIMF3WkAjyixuxc" name="Page-1">
        <mxGraphModel dx="1180" dy="633" grid="1" gridSize="10" guides="1" tooltips="1" connect="1" arrows="1" fold="1" page="1" pageScale="1" pageWidth="1169" pageHeight="1654" background="#FFF7FA" math="0" shadow="0">
            <root>
                <mxCell id="0"/>
                <mxCell id="1" parent="0"/>
                <mxCell id="4" value="Page" style="shape=ext;double=1;rounded=0;whiteSpace=wrap;html=1;" vertex="1" parent="1">
                    <mxGeometry x="205" y="40" width="700" height="540" as="geometry"/>
                </mxCell>
                <mxCell id="6" value="GridStackLayout" style="shape=ext;double=1;rounded=0;whiteSpace=wrap;html=1;" vertex="1" parent="1">
                    <mxGeometry x="480" y="110" width="380" height="300" as="geometry"/>
                </mxCell>
                <mxCell id="7" value="&lt;font color=&quot;#292929&quot;&gt;Event &amp;amp; Communication&lt;/font&gt;" style="text;strokeColor=none;fillColor=none;html=1;fontSize=24;fontStyle=1;verticalAlign=middle;align=center;" vertex="1" parent="1">
                    <mxGeometry x="10" y="10" width="340" height="30" as="geometry"/>
                </mxCell>
                <mxCell id="8" value="Page" style="text;strokeColor=none;fillColor=none;html=1;fontSize=24;fontStyle=1;verticalAlign=middle;align=center;fontColor=#f5f0f0;" vertex="1" parent="1">
                    <mxGeometry x="220" y="80" width="100" height="40" as="geometry"/>
                </mxCell>
                <mxCell id="9" value="Component" style="shape=ext;double=1;rounded=0;whiteSpace=wrap;html=1;fontColor=#f5f0f0;" vertex="1" parent="1">
                    <mxGeometry x="720" y="129" width="140" height="210" as="geometry"/>
                </mxCell>
                <mxCell id="11" value="&lt;font style=&quot;font-size: 14px;&quot;&gt;Provide&amp;nbsp;&lt;br&gt;Event handler register&lt;/font&gt;" style="ellipse;shape=doubleEllipse;whiteSpace=wrap;html=1;fontColor=#f5f0f0;" vertex="1" parent="1">
                    <mxGeometry x="270" y="280" width="140" height="110" as="geometry"/>
                </mxCell>
                <mxCell id="12" value="&lt;font style=&quot;font-size: 15px;&quot;&gt;Event handler implementation&lt;/font&gt;" style="shape=ext;double=1;rounded=0;whiteSpace=wrap;html=1;fontColor=#f5f0f0;" vertex="1" parent="1">
                    <mxGeometry x="30" y="109" width="120" height="80" as="geometry"/>
                </mxCell>
                <mxCell id="13" value="&lt;font style=&quot;font-size: 14px;&quot;&gt;Inject&lt;br&gt;Event handler &lt;/font&gt;" style="ellipse;shape=doubleEllipse;whiteSpace=wrap;html=1;fontColor=#f5f0f0;" vertex="1" parent="1">
                    <mxGeometry x="510" y="180" width="120" height="60" as="geometry"/>
                </mxCell>
                <mxCell id="14" value="Props Binding" style="whiteSpace=wrap;html=1;rounded=1;arcSize=50;align=center;verticalAlign=middle;strokeWidth=1;autosize=1;spacing=4;treeFolding=1;treeMoving=1;newEdgeStyle={&quot;edgeStyle&quot;:&quot;entityRelationEdgeStyle&quot;,&quot;startArrow&quot;:&quot;none&quot;,&quot;endArrow&quot;:&quot;none&quot;,&quot;segment&quot;:10,&quot;curved&quot;:1,&quot;sourcePerimeterSpacing&quot;:0,&quot;targetPerimeterSpacing&quot;:0};fontColor=#f5f0f0;" vertex="1" parent="1">
                    <mxGeometry x="730" y="139" width="120" height="30" as="geometry"/>
                </mxCell>
                <mxCell id="15" value="" style="edgeStyle=entityRelationEdgeStyle;startArrow=none;endArrow=none;segment=10;curved=1;sourcePerimeterSpacing=0;targetPerimeterSpacing=0;fontColor=#f5f0f0;" edge="1" target="14" parent="1">
                    <mxGeometry relative="1" as="geometry">
                        <mxPoint x="590" y="180" as="sourcePoint"/>
                    </mxGeometry>
                </mxCell>
                <mxCell id="16" value="h Render&amp;nbsp;" style="ellipse;whiteSpace=wrap;html=1;align=center;newEdgeStyle={&quot;edgeStyle&quot;:&quot;entityRelationEdgeStyle&quot;,&quot;startArrow&quot;:&quot;none&quot;,&quot;endArrow&quot;:&quot;none&quot;,&quot;segment&quot;:10,&quot;curved&quot;:1,&quot;sourcePerimeterSpacing&quot;:0,&quot;targetPerimeterSpacing&quot;:0};treeFolding=1;treeMoving=1;fontColor=#f5f0f0;" vertex="1" parent="1">
                    <mxGeometry x="610" y="129" width="100" height="40" as="geometry"/>
                </mxCell>
                <mxCell id="17" value="&lt;ul&gt;&lt;li&gt;load&lt;/li&gt;&lt;li&gt;save&lt;/li&gt;&lt;li&gt;item changed&lt;/li&gt;&lt;/ul&gt;" style="text;strokeColor=none;fillColor=none;html=1;whiteSpace=wrap;verticalAlign=middle;overflow=hidden;fontColor=#f5f0f0;" vertex="1" parent="1">
                    <mxGeometry x="765" y="169" width="95" height="121" as="geometry"/>
                </mxCell>
                <mxCell id="18" value="" style="curved=1;endArrow=classic;html=1;fontColor=#F21A1A;fontSize=19;strokeWidth=4;fillColor=#ffcd28;gradientColor=#ffa500;strokeColor=#d79b00;dashed=1;" edge="1" parent="1" target="12">
                    <mxGeometry width="50" height="50" relative="1" as="geometry">
                        <mxPoint x="740" y="170" as="sourcePoint"/>
                        <mxPoint x="610" y="240" as="targetPoint"/>
                        <Array as="points">
                            <mxPoint x="740" y="170"/>
                            <mxPoint x="690" y="170"/>
                            <mxPoint x="630" y="200"/>
                            <mxPoint x="600" y="200"/>
                            <mxPoint x="550" y="180"/>
                        </Array>
                    </mxGeometry>
                </mxCell>
                <mxCell id="19" value="&lt;ul&gt;&lt;li&gt;&lt;font style=&quot;font-size: 12px;&quot;&gt;Register handlers&lt;/font&gt;&lt;/li&gt;&lt;/ul&gt;" style="text;strokeColor=none;fillColor=none;html=1;whiteSpace=wrap;verticalAlign=middle;overflow=hidden;fontSize=19;fontColor=#F21A1A;" vertex="1" parent="1">
                    <mxGeometry x="735" y="259" width="125" height="80" as="geometry"/>
                </mxCell>
                <mxCell id="20" value="" style="curved=1;endArrow=classic;html=1;fontSize=12;fontColor=#F21A1A;strokeWidth=5;fillColor=#f8cecc;gradientColor=#ea6b66;strokeColor=#b85450;dashed=1;" edge="1" parent="1" source="12" target="19">
                    <mxGeometry width="50" height="50" relative="1" as="geometry">
                        <mxPoint x="560" y="280" as="sourcePoint"/>
                        <mxPoint x="610" y="230" as="targetPoint"/>
                        <Array as="points">
                            <mxPoint x="560" y="220"/>
                            <mxPoint x="560" y="230"/>
                        </Array>
                    </mxGeometry>
                </mxCell>
                <mxCell id="22" value="&lt;font color=&quot;#2bf21c&quot;&gt;From component&lt;/font&gt;" style="text;html=1;strokeColor=none;fillColor=none;align=center;verticalAlign=middle;whiteSpace=wrap;rounded=0;fontSize=12;fontColor=#F21A1A;" vertex="1" parent="1">
                    <mxGeometry x="650" y="180" width="130" height="30" as="geometry"/>
                </mxCell>
                <mxCell id="24" value="&lt;font color=&quot;#00ffff&quot; style=&quot;font-size: 14px;&quot;&gt;To component&lt;/font&gt;" style="text;html=1;strokeColor=none;fillColor=none;align=center;verticalAlign=middle;whiteSpace=wrap;rounded=0;fontSize=12;fontColor=#F21A1A;" vertex="1" parent="1">
                    <mxGeometry x="490" y="250" width="130" height="30" as="geometry"/>
                </mxCell>
                <mxCell id="25" value="" style="endArrow=classic;html=1;dashed=1;strokeWidth=5;fontSize=14;fontColor=#00FFFF;entryX=0.301;entryY=0.047;entryDx=0;entryDy=0;entryPerimeter=0;fillColor=#1ba1e2;strokeColor=#006EAF;" edge="1" parent="1" source="12" target="11">
                    <mxGeometry width="50" height="50" relative="1" as="geometry">
                        <mxPoint x="560" y="270" as="sourcePoint"/>
                        <mxPoint x="610" y="220" as="targetPoint"/>
                    </mxGeometry>
                </mxCell>
                <mxCell id="26" value="" style="endArrow=classic;html=1;dashed=1;strokeWidth=5;fontSize=14;fontColor=#00FFFF;exitX=0.953;exitY=0.295;exitDx=0;exitDy=0;exitPerimeter=0;fillColor=#1ba1e2;strokeColor=#006EAF;" edge="1" parent="1" source="11" target="13">
                    <mxGeometry width="50" height="50" relative="1" as="geometry">
                        <mxPoint x="400" y="470" as="sourcePoint"/>
                        <mxPoint x="450" y="420" as="targetPoint"/>
                    </mxGeometry>
                </mxCell>
                <mxCell id="28" value="Components info&lt;br&gt;(components)" style="rounded=1;whiteSpace=wrap;html=1;fontSize=14;fontColor=#00FFFF;" vertex="1" parent="1">
                    <mxGeometry x="310" y="450" width="120" height="60" as="geometry"/>
                </mxCell>
                <mxCell id="29" value="" style="endArrow=classic;html=1;dashed=1;strokeWidth=5;fontSize=14;fontColor=#00FFFF;entryX=0.925;entryY=-0.04;entryDx=0;entryDy=0;entryPerimeter=0;exitX=1;exitY=0.75;exitDx=0;exitDy=0;" edge="1" parent="1" source="24" target="28">
                    <mxGeometry width="50" height="50" relative="1" as="geometry">
                        <mxPoint x="560" y="270" as="sourcePoint"/>
                        <mxPoint x="610" y="220" as="targetPoint"/>
                        <Array as="points">
                            <mxPoint x="480" y="380"/>
                        </Array>
                    </mxGeometry>
                </mxCell>
                <mxCell id="30" value="Expose" style="ellipse;whiteSpace=wrap;html=1;align=center;newEdgeStyle={&quot;edgeStyle&quot;:&quot;entityRelationEdgeStyle&quot;,&quot;startArrow&quot;:&quot;none&quot;,&quot;endArrow&quot;:&quot;none&quot;,&quot;segment&quot;:10,&quot;curved&quot;:1,&quot;sourcePerimeterSpacing&quot;:0,&quot;targetPerimeterSpacing&quot;:0};treeFolding=1;treeMoving=1;fontColor=#f5f0f0;" vertex="1" parent="1">
                    <mxGeometry x="505" y="330" width="100" height="40" as="geometry"/>
                </mxCell>
            </root>
        </mxGraphModel>
    </diagram>
</mxfile>